<?xml version="1.0" standalone="no"?>
<!DOCTYPE svg PUBLIC "-//W3C//DTD SVG 20010904//EN"
 "http://www.w3.org/TR/2001/REC-SVG-20010904/DTD/svg10.dtd">
<svg version="1.0" xmlns="http://www.w3.org/2000/svg"
 width="552.000000pt" height="452.000000pt" viewBox="0 0 552.000000 452.000000"
 preserveAspectRatio="xMidYMid meet">
<metadata>
Created by potrace 1.16, written by Peter Selinger 2001-2019
</metadata>
<g transform="translate(0.000000,452.000000) scale(0.100000,-0.100000)"
fill="#000000" stroke="none">
<path d="M2682 3589 c-7 -12 -11 -24 -8 -27 3 -3 6 0 6 6 0 7 3 11 8 10 4 -1
24 2 44 6 50 11 100 -7 121 -43 21 -36 23 -114 2 -131 -8 -7 -13 -16 -10 -20
3 -4 -16 -13 -41 -20 -34 -10 -54 -10 -81 -2 -28 9 -33 8 -24 -1 12 -12 77
-15 118 -6 13 3 33 15 46 27 35 33 75 28 119 -13 35 -34 76 -52 44 -19 -19 18
-20 28 -6 55 20 36 80 18 80 -24 0 -10 5 -15 10 -12 6 4 8 16 4 28 -6 19 -5
20 9 6 10 -11 26 -14 49 -10 l33 6 -34 3 c-46 5 -65 25 -57 63 5 25 3 30 -12
27 -9 -2 -16 -9 -15 -15 1 -5 -18 -20 -43 -32 -38 -20 -49 -21 -79 -11 -19 6
-43 22 -54 36 -13 17 -21 20 -24 12 -3 -7 -4 11 -4 40 2 45 0 50 -11 35 -12
-17 -14 -17 -23 -1 -13 24 -74 41 -116 33 -24 -4 -33 -3 -28 4 3 6 2 11 -2 11
-5 0 -14 -9 -21 -21z"/>
<path d="M3100 2550 c-2 -34 -35 -58 -78 -57 -46 2 -51 -2 -24 -20 12 -7 24
-8 33 -2 23 14 88 10 114 -7 48 -31 53 -105 10 -147 -9 -10 -12 -17 -7 -17 5
0 18 12 27 27 l18 26 19 -39 c12 -25 15 -40 8 -42 -6 -2 1 -15 15 -28 18 -17
25 -32 23 -54 -2 -29 -5 -31 -37 -28 -42 4 -61 29 -43 58 16 27 15 35 -3 16
-26 -26 -18 -59 20 -84 33 -21 37 -22 52 -6 22 21 26 50 14 86 -10 28 -9 28
32 29 26 1 32 3 17 6 -56 9 -80 25 -90 61 -17 62 10 114 65 128 14 3 25 12 25
20 0 8 -6 11 -15 8 -8 -4 -15 -10 -15 -14 0 -10 -54 -7 -89 5 -14 4 -33 17
-44 29 -15 17 -18 17 -13 4 4 -13 0 -18 -13 -18 -26 0 -32 10 -20 32 6 10 8
24 5 31 -3 8 -5 7 -6 -3z"/>
<path d="M2542 1058 l-2 -408 85 0 85 0 0 290 0 290 43 -45 c24 -25 47 -45 51
-45 4 0 -15 23 -42 50 -27 28 -52 50 -56 50 -3 0 -6 -130 -6 -290 l0 -290 -75
0 -75 0 -3 403 -2 402 -3 -407z"/>
<path d="M1197 1080 c-4 -30 -7 -138 -5 -240 l3 -185 88 -3 87 -3 0 105 0 106
258 3 257 2 -260 0 -260 0 -3 -102 -3 -103 -74 0 -75 0 -2 238 c-2 167 -5 221
-11 182z"/>
<path d="M4028 823 l292 -3 0 -80 0 -80 -277 -3 c-155 -1 -94 -2 137 -2 228
-1 370 1 316 3 -80 2 -102 6 -112 20 -7 9 -16 14 -20 10 -18 -19 -34 17 -34
78 l0 64 -297 -2 -298 -3 293 -2z"/>
</g>
</svg>
