<?xml version="1.0" standalone="no"?>
<!DOCTYPE svg PUBLIC "-//W3C//DTD SVG 20010904//EN"
 "http://www.w3.org/TR/2001/REC-SVG-20010904/DTD/svg10.dtd">
<svg version="1.0" xmlns="http://www.w3.org/2000/svg"
 width="256.000000pt" height="256.000000pt" viewBox="0 0 256.000000 256.000000"
 preserveAspectRatio="xMidYMid meet">

<g transform="translate(0.000000,256.000000) scale(0.100000,-0.100000)"
fill="#000000" stroke="none">
<path d="M400 2550 c-13 -8 -15 -68 -18 -419 l-3 -409 -147 -4 c-124 -3 -151
-6 -176 -23 -56 -37 -56 -42 -56 -566 0 -526 0 -526 58 -566 24 -16 55 -18
265 -21 132 -2 254 -1 273 2 46 9 61 39 34 66 -19 19 -32 20 -273 20 -183 0
-256 3 -265 12 -9 9 -12 80 -12 260 l0 248 593 0 594 0 -5 -107 c-4 -107 -5
-108 -36 -135 -18 -14 -40 -45 -51 -67 l-18 -41 -122 0 c-133 0 -159 -9 -153
-51 3 -24 3 -24 135 -27 l133 -3 0 -44 0 -45 -174 0 c-194 0 -226 -6 -226 -45
0 -39 32 -45 225 -45 l174 0 3 -260 c3 -219 5 -262 18 -270 24 -15 1083 -13
1098 2 9 9 12 111 12 399 0 428 0 426 -64 488 -32 31 -36 41 -36 85 -1 164
-42 287 -126 376 l-47 50 265 0 c192 0 267 3 276 12 17 17 17 1109 0 1126 -9
9 -78 12 -250 12 -227 0 -238 -1 -248 -20 -8 -14 -8 -26 0 -40 10 -19 21 -20
220 -20 l210 0 0 -495 0 -495 -307 0 c-200 0 -327 4 -365 12 l-58 12 0 45 c0
40 5 50 55 102 137 143 170 345 87 522 -136 290 -520 358 -747 132 -90 -90
-135 -198 -136 -327 0 -90 12 -144 51 -215 l28 -53 -309 0 -309 0 0 380 0 380
721 2 c675 3 723 4 733 21 8 12 8 22 0 35 -10 16 -59 17 -760 19 -461 2 -755
-1 -764 -7z m1184 -195 c107 -33 191 -109 243 -221 23 -50 27 -72 27 -149 0
-80 -3 -98 -31 -156 -17 -36 -47 -85 -68 -108 -37 -41 -38 -41 -63 -25 -15 10
-56 18 -103 21 -57 4 -79 10 -79 19 0 8 8 14 19 14 38 0 82 23 96 51 9 15 15
55 15 89 0 90 -22 123 -92 135 l-38 7 0 53 0 54 66 3 c51 2 70 7 78 21 21 33
-4 52 -77 55 l-66 3 -3 37 c-2 30 -7 38 -26 40 -31 5 -52 -15 -52 -48 0 -24
-5 -28 -38 -34 -55 -8 -82 -42 -89 -108 -10 -99 25 -158 94 -158 l33 0 0 -60
0 -60 -65 0 c-55 0 -66 -3 -75 -21 -20 -36 12 -59 82 -59 45 0 58 -3 58 -15 0
-12 -20 -15 -118 -15 -137 0 -141 2 -189 105 -25 53 -28 71 -28 160 0 91 3
106 31 165 82 172 278 260 458 205z m-154 -271 c0 -52 -1 -55 -22 -52 -17 2
-24 11 -26 32 -5 45 6 76 28 76 18 0 20 -7 20 -56z m125 -194 c0 -49 -2 -55
-22 -58 -21 -3 -23 0 -23 51 0 58 5 69 30 65 11 -3 15 -17 15 -58z m93 -266
c18 -12 22 -25 22 -64 l0 -48 -52 -12 c-29 -7 -70 -21 -90 -31 -35 -18 -74
-19 -743 -19 l-705 0 0 78 c0 80 5 95 30 105 8 3 353 6 765 6 664 1 753 -1
773 -15z m224 -226 c73 -34 152 -112 186 -186 22 -47 27 -74 30 -154 4 -92 3
-98 -16 -98 -17 0 -20 10 -26 87 -16 212 -150 341 -346 331 -180 -8 -299 -136
-308 -330 -4 -86 -5 -88 -30 -88 l-25 0 6 88 c7 115 35 187 99 258 82 90 169
125 293 121 61 -2 94 -10 137 -29z m-499 -40 c-4 -7 -25 -39 -46 -70 l-38 -58
-604 0 -605 0 0 70 0 70 650 0 c518 0 649 -3 643 -12z m295 -90 c-3 -32 -4
-33 -57 -36 -65 -4 -65 11 -1 45 56 30 62 29 58 -9z m177 -1 c80 -44 125 -137
125 -257 l0 -50 -110 0 -110 0 0 171 0 171 28 -7 c15 -3 45 -16 67 -28z m-175
-212 l0 -95 -100 0 -100 0 0 69 c0 38 4 81 10 95 9 25 12 26 100 26 l90 0 0
-95z m450 -188 c19 -7 44 -27 57 -46 23 -34 23 -36 23 -387 l0 -354 -485 0
-485 0 0 333 c0 189 4 347 10 368 12 42 46 76 86 89 46 14 753 11 794 -3z"/>
<path d="M1654 810 c-102 -21 -203 -102 -247 -198 -33 -72 -31 -198 4 -273 34
-72 96 -134 168 -168 75 -35 201 -37 273 -4 181 83 255 302 160 476 -66 123
-222 195 -358 167z m186 -108 c161 -80 181 -316 37 -426 -136 -104 -325 -54
-396 104 -49 109 -5 250 100 316 80 50 165 52 259 6z"/>
<path d="M1775 525 l-70 -64 -45 45 c-25 24 -53 44 -61 44 -20 0 -39 -20 -39
-40 0 -18 120 -150 136 -150 15 0 197 159 208 181 11 24 -9 49 -38 49 -12 0
-52 -29 -91 -65z"/>
<path d="M526 2374 c-19 -19 -20 -25 -3 -47 11 -16 33 -17 207 -15 l195 3 3
23 c7 49 -7 52 -204 52 -153 0 -185 -3 -198 -16z"/>
<path d="M2022 2378 c-7 -7 -12 -20 -12 -29 0 -36 22 -40 215 -37 166 3 189 5
199 21 8 12 8 22 0 35 -10 15 -33 17 -200 20 -139 2 -193 -1 -202 -10z"/>
<path d="M526 2204 c-19 -18 -19 -20 -6 -45 10 -17 23 -19 158 -19 153 0 172
5 172 42 0 30 -35 38 -174 38 -109 0 -138 -3 -150 -16z"/>
<path d="M2110 2206 c-6 -8 -10 -25 -8 -38 3 -23 5 -23 152 -26 154 -3 176 2
176 39 0 31 -34 39 -173 39 -105 0 -137 -3 -147 -14z"/>
<path d="M677 1974 c-66 -66 -26 -174 65 -174 76 0 122 63 98 134 -22 68 -113
90 -163 40z m91 -71 c5 -17 -26 -29 -40 -15 -6 6 -7 15 -3 22 9 14 37 9 43 -7z"/>
<path d="M2129 1971 c-23 -23 -29 -38 -29 -71 0 -91 106 -135 171 -71 23 23
29 38 29 71 0 33 -6 48 -29 71 -23 23 -38 29 -71 29 -33 0 -48 -6 -71 -29z
m91 -71 c0 -13 -7 -20 -20 -20 -13 0 -20 7 -20 20 0 13 7 20 20 20 13 0 20 -7
20 -20z"/>
<path d="M1944 1613 c-18 -13 -23 -40 -11 -57 18 -25 175 -19 191 7 8 12 8 22
0 35 -9 13 -28 18 -90 20 -43 1 -84 -1 -90 -5z"/>
<path d="M2236 1605 c-19 -20 -20 -26 -3 -49 18 -25 174 -20 191 7 8 12 8 22
0 35 -16 25 -164 30 -188 7z"/>
</g>
</svg>
