<?xml version="1.0" standalone="no"?>
<!DOCTYPE svg PUBLIC "-//W3C//DTD SVG 20010904//EN"
 "http://www.w3.org/TR/2001/REC-SVG-20010904/DTD/svg10.dtd">
<svg version="1.0" xmlns="http://www.w3.org/2000/svg"
 width="512.000000pt" height="512.000000pt" viewBox="0 0 512.000000 512.000000"
 preserveAspectRatio="xMidYMid meet">

<g transform="translate(0.000000,512.000000) scale(0.100000,-0.100000)"
fill="#000000" stroke="none">
<path d="M2455 4726 c-190 -198 -396 -322 -594 -357 -78 -13 -121 -36 -155
-82 -20 -27 -21 -42 -24 -315 -3 -299 2 -367 39 -480 12 -35 19 -65 18 -66 -2
-2 -236 -54 -519 -115 -283 -61 -525 -116 -537 -123 -33 -17 -431 -686 -442
-742 -15 -82 15 -173 74 -225 19 -16 95 -53 179 -86 l146 -58 0 -441 c0 -373
2 -450 15 -488 15 -44 59 -97 100 -123 29 -19 1788 -705 1806 -705 8 0 418
157 910 350 l894 349 45 49 c25 27 51 67 58 89 9 29 12 166 12 480 l0 439 146
58 c80 32 159 70 175 84 17 13 41 47 56 75 21 43 24 61 21 121 l-4 71 -207
346 c-122 203 -217 351 -230 358 -12 6 -254 61 -537 122 -283 61 -517 113
-519 115 -1 1 6 31 18 66 37 113 42 181 39 480 -3 273 -4 288 -24 315 -34 46
-77 69 -155 82 -193 34 -393 152 -581 343 -114 116 -124 117 -223 14z m188
-202 c173 -161 379 -273 567 -308 l65 -12 3 -262 c3 -312 -4 -360 -77 -507
-100 -203 -313 -411 -584 -570 l-57 -34 -51 30 c-204 120 -410 297 -513 442
-63 88 -123 218 -141 305 -12 56 -15 131 -13 334 l3 262 65 12 c188 35 402
152 567 309 43 41 80 74 81 75 2 0 41 -34 85 -76z m-760 -1335 c120 -160 328
-338 544 -465 122 -72 133 -74 217 -29 224 118 491 346 615 521 l43 61 42 -9
c22 -5 205 -45 405 -88 200 -44 365 -81 367 -82 6 -7 -1533 -603 -1556 -603
-31 0 -1562 598 -1546 604 35 14 802 177 806 172 3 -3 32 -40 63 -82z m-278
-501 c451 -176 823 -323 827 -327 10 -8 -345 -600 -373 -623 -12 -10 -31 -18
-43 -18 -34 0 -1577 606 -1598 628 -40 40 -30 64 157 376 138 229 182 296 194
291 9 -3 385 -150 836 -327z m2939 38 c187 -312 199 -342 157 -380 -25 -23
-1564 -626 -1596 -626 -13 0 -35 10 -48 23 -23 21 -362 578 -369 606 -2 9 263
117 832 341 459 181 838 329 841 329 3 1 86 -131 183 -293z m-2067 -2203 c-2
-1 -372 141 -823 317 -530 208 -825 328 -836 341 -17 19 -18 55 -18 425 0 222
3 404 7 404 4 0 262 -100 573 -222 625 -245 635 -248 728 -208 29 13 64 36 77
52 14 16 85 129 157 251 l133 221 3 -789 c1 -433 1 -790 -1 -792z m306 1352
c69 -115 135 -222 146 -237 12 -15 46 -39 76 -54 96 -46 99 -45 737 204 311
122 569 222 572 222 3 0 6 -182 6 -404 0 -370 -1 -406 -17 -425 -12 -14 -295
-129 -836 -341 -450 -176 -821 -320 -823 -320 -2 0 -4 356 -4 792 0 440 4 788
9 783 4 -6 65 -104 134 -220z"/>
<path d="M2790 3990 c-9 -5 -85 -101 -170 -214 -85 -113 -158 -205 -161 -206
-3 0 -45 36 -92 80 -66 62 -92 80 -114 80 -40 0 -73 -37 -73 -81 0 -32 13 -48
128 -162 130 -129 149 -140 192 -117 24 13 386 488 400 524 24 63 -53 130
-110 96z"/>
</g>
</svg>
