<?xml version="1.0" standalone="no"?>
<!DOCTYPE svg PUBLIC "-//W3C//DTD SVG 20010904//EN"
 "http://www.w3.org/TR/2001/REC-SVG-20010904/DTD/svg10.dtd">
<svg version="1.0" xmlns="http://www.w3.org/2000/svg"
 width="512.000000pt" height="512.000000pt" viewBox="0 0 512.000000 512.000000"
 preserveAspectRatio="xMidYMid meet">

<g transform="translate(0.000000,512.000000) scale(0.100000,-0.100000)"
fill="#000000" stroke="none">
<path d="M935 4550 c-315 -176 -603 -309 -818 -375 -123 -39 -125 -43 -103
-193 9 -65 21 -134 27 -154 21 -80 109 -93 148 -21 9 18 8 41 -4 110 -8 49
-15 93 -15 99 0 6 19 16 43 23 158 47 578 239 795 364 l112 65 113 -65 c222
-128 635 -316 795 -364 l43 -13 -6 -50 c-4 -28 -20 -118 -36 -201 -117 -601
-353 -1086 -659 -1352 -60 -52 -234 -173 -249 -173 -4 0 -49 27 -101 61 -128
82 -312 267 -402 404 -131 199 -239 436 -313 686 -46 159 -54 178 -76 189 -52
28 -119 -8 -119 -64 0 -63 90 -336 175 -534 170 -392 424 -694 729 -866 45
-25 92 -46 106 -46 58 0 270 141 399 265 351 337 582 859 698 1579 35 218 40
207 -127 262 -229 75 -475 190 -805 374 -79 44 -154 80 -167 80 -12 -1 -95
-41 -183 -90z"/>
<path d="M1303 3498 l-263 -262 -103 102 c-65 64 -112 102 -125 102 -56 0
-101 -52 -89 -102 4 -13 69 -85 145 -161 123 -122 142 -137 172 -137 31 0 59
25 331 297 174 173 300 307 304 321 13 52 -30 102 -88 102 -14 0 -103 -81
-284 -262z"/>
<path d="M2345 3655 c-16 -15 -25 -36 -25 -55 0 -19 9 -40 25 -55 l24 -25 296
0 295 0 0 -880 0 -880 -1240 0 -1240 0 0 375 0 376 -25 24 c-15 16 -36 25 -55
25 -19 0 -40 -9 -55 -25 l-25 -24 0 -831 0 -831 25 -24 24 -25 271 0 271 0 24
25 c19 18 25 35 25 67 0 107 53 232 137 319 187 197 499 197 686 0 84 -87 137
-212 137 -319 0 -32 6 -49 25 -67 l24 -25 751 0 751 0 24 25 c19 18 25 35 25
67 0 107 53 232 137 319 187 197 499 197 686 0 84 -87 137 -212 137 -319 0
-32 6 -49 25 -67 l24 -25 271 0 271 0 24 25 25 24 0 466 c0 305 -4 473 -10
486 -6 11 -112 70 -249 139 l-238 119 -223 555 c-199 499 -226 559 -261 595
-62 61 -104 71 -311 71 -177 0 -179 0 -203 -25 -16 -15 -25 -36 -25 -55 0 -19
9 -40 25 -55 24 -25 27 -25 198 -25 152 0 178 -2 196 -17 14 -12 102 -219 249
-588 l227 -570 233 -118 232 -117 0 -375 0 -375 -163 0 -162 0 -12 60 c-32
172 -170 348 -333 429 -192 94 -388 94 -580 0 -163 -81 -300 -257 -333 -427
l-12 -62 -645 0 -645 0 -12 60 c-32 172 -170 348 -333 429 -192 94 -388 94
-580 0 -163 -81 -300 -257 -333 -427 l-12 -62 -162 0 -163 0 0 320 0 320 1295
0 1296 0 24 25 25 24 0 736 0 735 135 0 c131 0 137 1 160 25 33 32 33 78 0
110 -23 24 -29 25 -160 25 l-135 0 0 175 c0 173 0 176 -25 200 l-24 25 -351 0
-351 0 -24 -25z"/>
<path d="M3305 2935 l-25 -24 0 -471 0 -471 25 -24 24 -25 431 0 431 0 24 25
c14 13 25 35 25 47 0 43 -329 932 -351 951 -19 15 -49 17 -291 17 l-269 0 -24
-25z m608 -488 c70 -194 127 -355 127 -360 0 -4 -135 -7 -300 -7 l-300 0 0
360 0 360 173 0 172 0 128 -353z"/>
<path d="M1346 1270 c-63 -16 -153 -70 -197 -117 -22 -24 -55 -74 -72 -111
-29 -61 -32 -76 -32 -163 0 -90 2 -99 37 -171 45 -91 103 -147 196 -191 61
-29 76 -32 162 -32 86 0 101 3 162 32 93 44 151 100 196 191 35 72 37 81 37
172 0 91 -2 100 -37 172 -68 136 -188 217 -336 224 -42 2 -94 -1 -116 -6z
m168 -162 c86 -26 166 -136 166 -228 0 -124 -116 -240 -240 -240 -63 0 -114
23 -165 75 -102 101 -102 229 0 330 70 71 145 90 239 63z"/>
<path d="M3906 1270 c-63 -16 -153 -70 -197 -117 -22 -24 -55 -74 -72 -111
-29 -61 -32 -76 -32 -163 0 -90 2 -99 37 -171 45 -91 103 -147 196 -191 61
-29 76 -32 162 -32 86 0 101 3 162 32 93 44 151 100 196 191 35 72 37 81 37
172 0 91 -2 100 -37 172 -68 136 -188 217 -336 224 -42 2 -94 -1 -116 -6z
m168 -162 c86 -26 166 -136 166 -228 0 -124 -116 -240 -240 -240 -124 0 -240
116 -240 240 0 63 23 114 75 165 70 71 145 90 239 63z"/>
</g>
</svg>
