<?xml version="1.0" standalone="no"?>
<!DOCTYPE svg PUBLIC "-//W3C//DTD SVG 20010904//EN"
 "http://www.w3.org/TR/2001/REC-SVG-20010904/DTD/svg10.dtd">
<svg version="1.0" xmlns="http://www.w3.org/2000/svg"
 width="512.000000pt" height="512.000000pt" viewBox="0 0 512.000000 512.000000"
 preserveAspectRatio="xMidYMid meet">

<g transform="translate(0.000000,512.000000) scale(0.100000,-0.100000)"
fill="#000000" stroke="none">
<path d="M2328 5110 c-45 -14 -87 -50 -109 -93 -16 -30 -25 -79 -35 -181 -7
-78 -14 -153 -14 -167 0 -25 -5 -27 -127 -59 -71 -17 -137 -34 -148 -37 -17
-4 -38 21 -118 136 -102 148 -129 171 -209 186 -52 10 -90 -5 -282 -115 -193
-109 -222 -138 -232 -227 -6 -48 -2 -61 66 -213 l72 -163 -98 -91 c-53 -50
-100 -92 -105 -94 -4 -2 -66 26 -137 62 -161 81 -205 93 -269 75 -66 -18 -103
-60 -218 -250 l-100 -164 0 -66 c0 -55 4 -73 26 -103 19 -27 149 -132 286
-231 2 -1 -8 -34 -21 -73 -13 -39 -36 -120 -51 -181 -26 -106 -28 -111 -54
-111 -14 0 -89 -7 -167 -14 -163 -16 -209 -34 -251 -98 l-28 -42 0 -236 0
-236 28 -42 c42 -64 88 -82 251 -98 78 -7 153 -14 167 -14 25 0 27 -5 59 -128
17 -70 34 -136 37 -147 4 -17 -21 -38 -136 -118 -148 -102 -171 -129 -186
-209 -10 -52 5 -90 115 -282 109 -193 138 -222 227 -232 48 -6 61 -2 213 66
l163 72 91 -98 c50 -53 92 -100 94 -105 2 -4 -26 -66 -62 -137 -81 -161 -93
-205 -75 -269 18 -66 60 -103 250 -218 l164 -100 66 0 c55 0 73 4 103 26 27
19 132 149 231 286 1 2 34 -8 73 -21 39 -13 120 -36 181 -51 106 -26 111 -28
111 -54 0 -14 7 -89 14 -167 16 -163 34 -209 98 -251 l42 -28 236 0 236 0 42
28 c64 42 82 88 98 251 7 78 14 153 14 167 0 25 5 27 128 59 70 17 136 34 147
37 17 4 38 -21 118 -136 102 -148 129 -171 209 -186 52 -10 90 5 282 115 193
109 222 138 232 227 6 48 2 61 -66 213 l-72 163 98 91 c53 50 100 92 105 94 4
2 66 -26 137 -62 161 -81 205 -93 269 -75 66 18 103 60 218 250 l100 164 0 66
c0 55 -4 73 -26 103 -19 27 -149 132 -286 231 -2 1 8 34 21 73 13 39 36 120
51 181 26 106 28 111 54 111 14 0 89 7 167 14 163 16 209 34 251 98 l28 42 0
236 0 236 -28 42 c-42 64 -88 82 -251 98 -78 7 -153 14 -167 14 -25 0 -27 5
-59 128 -17 70 -34 136 -37 147 -4 17 21 38 136 118 148 102 171 129 186 209
10 52 -5 90 -115 282 -109 193 -138 222 -227 232 -48 6 -61 2 -213 -66 l-163
-72 -91 98 c-50 53 -92 100 -94 105 -2 4 26 66 62 137 81 161 93 205 75 269
-18 66 -60 103 -250 218 l-164 100 -66 0 c-55 0 -73 -4 -103 -26 -27 -19 -132
-149 -231 -286 -1 -2 -34 8 -73 21 -39 13 -120 36 -181 51 -106 26 -111 28
-111 54 0 14 -7 89 -14 167 -16 163 -34 209 -98 251 l-41 28 -221 2 c-122 1
-233 -2 -248 -7z m435 -162 c9 -14 20 -96 30 -213 16 -179 18 -191 41 -212 14
-11 44 -24 68 -28 81 -13 236 -55 338 -91 83 -30 105 -35 125 -26 13 6 78 83
145 172 76 100 127 160 138 160 24 -1 312 -181 329 -206 12 -19 4 -39 -77
-205 -70 -141 -89 -189 -83 -205 4 -12 76 -92 159 -178 116 -119 157 -156 176
-156 14 0 105 37 204 81 130 59 182 79 194 72 13 -9 110 -168 175 -291 21 -39
23 -49 12 -65 -7 -10 -82 -67 -167 -126 -106 -74 -158 -116 -164 -134 -7 -20
-1 -54 27 -149 21 -68 45 -161 54 -207 26 -131 22 -128 248 -148 117 -10 199
-21 213 -30 22 -13 22 -17 22 -203 0 -186 0 -190 -22 -203 -14 -9 -96 -20
-213 -30 -179 -16 -191 -18 -212 -41 -11 -14 -24 -44 -28 -68 -13 -81 -55
-236 -91 -338 -30 -83 -35 -105 -26 -125 6 -13 83 -78 172 -145 100 -76 160
-127 160 -138 -1 -24 -181 -312 -206 -329 -19 -12 -39 -4 -205 77 -141 70
-189 89 -205 83 -12 -4 -92 -76 -178 -159 -119 -116 -156 -157 -156 -176 0
-14 37 -105 81 -204 59 -130 79 -182 72 -194 -9 -13 -168 -110 -291 -175 -39
-21 -49 -23 -65 -12 -10 7 -67 82 -126 167 -74 106 -116 158 -134 164 -20 7
-54 1 -149 -27 -68 -21 -161 -45 -207 -54 -131 -26 -128 -22 -148 -248 -10
-117 -21 -199 -30 -212 -13 -23 -17 -23 -203 -23 -186 0 -190 0 -203 22 -9 14
-20 96 -30 213 -16 179 -18 191 -41 212 -14 11 -44 24 -68 28 -80 13 -236 55
-335 90 -80 29 -104 34 -125 26 -17 -6 -71 -69 -148 -171 -76 -100 -127 -160
-138 -160 -24 1 -312 181 -329 206 -12 19 -4 39 77 205 70 141 89 189 83 205
-4 12 -76 92 -159 178 -113 117 -157 156 -175 156 -14 0 -105 -36 -204 -81
-130 -59 -183 -79 -195 -72 -13 9 -110 168 -175 291 -21 39 -23 49 -12 65 7
10 82 67 167 126 106 74 158 116 164 134 7 20 1 54 -27 149 -21 68 -45 161
-54 207 -26 131 -22 128 -248 148 -117 10 -199 21 -213 30 -22 13 -22 17 -22
203 0 186 0 190 22 203 14 9 96 20 213 30 179 16 191 18 212 41 11 14 24 44
28 68 13 81 55 236 91 338 30 83 35 105 26 125 -6 13 -83 78 -172 145 -100 76
-160 127 -160 138 1 24 181 312 206 329 19 12 39 4 205 -77 141 -70 189 -89
205 -83 12 4 92 76 178 159 119 116 156 157 156 176 0 14 -37 105 -81 204 -59
130 -79 182 -72 194 9 13 168 110 291 175 39 21 49 23 65 12 10 -7 67 -82 126
-167 74 -106 116 -158 134 -164 20 -7 54 -1 149 27 68 21 161 45 207 54 131
26 128 22 148 248 10 117 21 199 30 213 13 22 17 22 203 22 186 0 190 0 203
-22z"/>
<path d="M2470 4224 c-423 -34 -782 -198 -1074 -490 -261 -261 -416 -575 -472
-954 -22 -150 -15 -399 16 -545 48 -231 146 -458 279 -646 128 -181 358 -385
547 -486 62 -32 76 -36 100 -28 16 6 35 22 43 36 22 39 7 75 -42 105 -126 79
-242 160 -288 201 l-51 47 21 17 c39 31 129 59 315 95 99 20 196 42 215 50 33
14 37 13 90 -20 125 -76 242 -109 391 -109 149 0 266 33 391 109 53 33 57 34
90 20 19 -8 115 -30 214 -50 196 -38 246 -53 314 -93 l45 -26 -54 -49 c-227
-201 -551 -333 -875 -358 -99 -7 -161 -5 -395 16 -55 5 -67 4 -82 -12 -30 -34
-32 -68 -6 -99 20 -22 38 -30 108 -42 119 -20 408 -20 530 1 543 92 1001 434
1234 921 119 249 166 452 166 725 0 453 -168 859 -490 1180 -248 248 -565 410
-910 465 -90 15 -295 25 -370 19z m325 -165 c338 -50 631 -202 875 -455 260
-269 402 -606 417 -987 14 -366 -86 -682 -310 -979 -28 -38 -55 -68 -60 -68
-4 0 -29 14 -53 31 -76 52 -159 79 -377 125 -171 35 -215 47 -244 69 -57 45
-73 80 -73 165 l0 76 58 57 c38 38 66 57 82 57 35 1 100 32 143 69 40 35 87
125 87 165 0 14 4 26 9 26 19 0 72 53 91 91 18 34 20 59 20 244 0 185 -2 210
-20 244 -10 21 -31 47 -45 57 -23 18 -24 21 -13 51 11 29 9 43 -16 120 -78
241 -242 486 -325 486 -43 0 -71 -28 -71 -71 0 -27 11 -47 49 -91 90 -105 145
-205 201 -368 21 -61 25 -83 16 -83 -8 0 -20 7 -27 16 -27 33 -57 35 -117 10
-158 -66 -347 -77 -527 -31 -76 20 -208 82 -288 137 -34 23 -106 89 -159 147
-112 122 -112 110 -8 211 122 120 254 178 425 187 93 5 106 4 191 -26 107 -37
127 -38 155 -10 32 32 23 87 -19 116 -84 56 -256 89 -379 73 -252 -34 -457
-163 -600 -378 -84 -126 -143 -300 -143 -423 0 -33 -7 -46 -44 -82 -59 -57
-69 -107 -64 -331 3 -166 4 -172 31 -219 34 -58 84 -86 171 -94 l62 -6 18 -49
c30 -84 86 -170 163 -247 l73 -73 0 -67 c0 -76 -18 -113 -74 -156 -29 -22 -70
-34 -228 -66 -225 -46 -295 -67 -373 -114 l-57 -35 -19 23 c-50 58 -153 223
-192 308 -154 331 -186 672 -97 1026 188 745 923 1234 1685 1122z m-801 -795
c27 -31 45 -59 40 -64 -13 -13 -127 -80 -135 -80 -4 0 -5 17 -3 38 8 54 36
162 43 162 3 0 28 -25 55 -56z m353 -255 c152 -75 266 -101 433 -102 90 0 158
6 203 17 38 9 72 16 78 16 5 0 9 -91 9 -223 0 -234 -8 -295 -50 -377 l-20 -39
-209 -3 c-189 -3 -211 -5 -230 -22 -29 -26 -29 -86 0 -112 18 -16 42 -20 153
-24 l131 -5 -50 -27 c-109 -57 -266 -77 -375 -48 -132 35 -266 140 -329 256
-60 111 -64 135 -69 425 l-4 266 74 50 73 51 40 -25 c22 -13 86 -46 142 -74z
m-477 -265 l0 -195 -37 3 -38 3 -3 180 c-1 98 0 185 2 192 3 7 21 13 41 13
l35 0 0 -196z m1429 182 c8 -9 11 -69 9 -192 l-3 -179 -37 -3 -38 -3 0 195 0
196 29 0 c16 0 34 -6 40 -14z m-479 -1030 c0 -28 10 -63 28 -100 33 -64 33
-63 -49 -99 -78 -35 -151 -50 -239 -50 -88 0 -161 15 -239 50 -82 36 -82 35
-49 99 16 33 28 73 28 95 0 44 2 45 79 24 120 -32 265 -28 368 9 66 24 73 21
73 -28z"/>
<path d="M2265 2870 c-24 -27 -22 -70 5 -92 28 -23 52 -23 78 0 31 27 35 55
11 85 -25 33 -68 36 -94 7z"/>
<path d="M2717 2872 c-36 -40 -6 -112 46 -112 29 0 67 39 67 68 0 52 -79 82
-113 44z"/>
<path d="M2378 2505 c-36 -20 -46 -69 -21 -104 30 -41 118 -81 177 -81 92 1
196 65 196 122 0 33 -39 78 -67 78 -10 0 -36 -11 -58 -25 -51 -31 -80 -31
-130 0 -46 28 -60 30 -97 10z"/>
</g>
</svg>
